<svg xmlns="http://www.w3.org/2000/svg" viewBox="0 0 600 600" width="1200" height="1200"><rect width="600" height="600" fill="#3DB8F5"/><path d="M300 252 L900 252 L892.6130043570827 345.8606790241385Z" fill="#86D4F9" opacity=".45"/><path d="M300 252 L863.815572471545 457.21208599540125 L824.7718242836374 542.8857721478023Z" fill="#86D4F9" opacity=".45"/><path d="M300 252 L759.6266658713869 637.6725658119235 L693.6354173943043 704.8257481336632Z" fill="#86D4F9" opacity=".45"/><path d="M300 252 L600 771.6152422706632 L515.0207697271802 812.148255898321Z" fill="#86D4F9" opacity=".45"/><path d="M300 252 L404.18890660015825 842.8846518073248 L310.47144386237005 851.9086170938348Z" fill="#86D4F9" opacity=".45"/><path d="M300 252 L195.8110933998418 842.8846518073248 L104.65910732570615 819.3111453595901Z" fill="#86D4F9" opacity=".45"/><path d="M300 252 L1.1368683772161603e-13 771.6152422706632 L-77.59223462990235 718.2875768741826Z" fill="#86D4F9" opacity=".45"/><path d="M300 252 L-159.62666587138676 637.6725658119237 L-214.30038042126728 561.0228449460326Z" fill="#86D4F9" opacity=".45"/><path d="M300 252 L-263.815572471545 457.21208599540137 L-288.9763100685984 366.485397225927Z" fill="#86D4F9" opacity=".45"/><path d="M300 252 L-300 252.00000000000009 L-292.6130043570827 158.13932097586155Z" fill="#86D4F9" opacity=".45"/><path d="M300 252 L-263.815572471545 46.787914004598804 L-224.77182428363756 -38.885772147802186Z" fill="#86D4F9" opacity=".45"/><path d="M300 252 L-159.62666587138688 -133.67256581192356 L-93.63541739430462 -200.825748133663Z" fill="#86D4F9" opacity=".45"/><path d="M300 252 L-2.8421709430404007e-13 -267.6152422706631 L84.97923027281956 -308.14825589832094Z" fill="#86D4F9" opacity=".45"/><path d="M300 252 L195.8110933998418 -338.88465180732476 L289.5285561376299 -347.9086170938348Z" fill="#86D4F9" opacity=".45"/><path d="M300 252 L404.18890660015796 -338.8846518073249 L495.3408926742938 -315.3111453595902Z" fill="#86D4F9" opacity=".45"/><path d="M300 252 L600 -267.6152422706632 L677.5922346299026 -214.2875768741825Z" fill="#86D4F9" opacity=".45"/><path d="M300 252 L759.6266658713866 -133.67256581192373 L814.3003804212673 -57.022844946032706Z" fill="#86D4F9" opacity=".45"/><path d="M300 252 L863.815572471545 46.78791400459883 L888.9763100685984 137.51460277407318Z" fill="#86D4F9" opacity=".45"/>
  <ellipse cx="300" cy="590" rx="252" ry="54" fill="#1E1430" opacity=".18"/>
    <defs><clipPath id="torse"><path d="M210 330 C200 330 186 350 180 380 C166 450 150 530 146 640 L454 640 C450 530 434 450 420 380 C414 350 400 330 390 330 Z"/></clipPath></defs>
    
  <path d="M210 330 C200 330 186 350 180 380 C166 450 150 530 146 640 L454 640 C450 530 434 450 420 380 C414 350 400 330 390 330 Z" fill="#B9BEC9" stroke="#1E1430" stroke-width="7" stroke-linejoin="round" stroke-linecap="round"/>
  <path d="M250 360 C270 420 330 420 350 360 C346 420 330 470 300 480 C270 470 254 420 250 360Z" fill="#FFFFFF" opacity=".85"/>
  <!-- pattes avant -->
  <rect x="222" y="470" width="58" height="150" rx="28" fill="#B9BEC9" stroke="#1E1430" stroke-width="7" stroke-linejoin="round" stroke-linecap="round"/>
  <rect x="320" y="470" width="58" height="150" rx="28" fill="#B9BEC9" stroke="#1E1430" stroke-width="7" stroke-linejoin="round" stroke-linecap="round"/>
  <ellipse cx="251" cy="592" rx="36" ry="20" fill="#FFFFFF" stroke="#1E1430" stroke-width="7" stroke-linejoin="round" stroke-linecap="round"/>
  <ellipse cx="349" cy="592" rx="36" ry="20" fill="#FFFFFF" stroke="#1E1430" stroke-width="7" stroke-linejoin="round" stroke-linecap="round"/>
  <path d="M240 600 v-10 M262 600 v-10 M338 600 v-10 M360 600 v-10" stroke="#1E1430" stroke-width="4" stroke-linecap="round"/>
    <defs><pattern id="rayures" width="18" height="18" patternUnits="userSpaceOnUse"><rect width="18" height="18" fill="#8C8FA0"/><rect width="5" height="18" fill="#6C6F82"/></pattern></defs>
        <path d="M180 470 Q150 560 160 650 L215 650 Q205 560 230 470Z" fill="url(#rayures)" stroke="#1E1430" stroke-width="7" stroke-linejoin="round" stroke-linecap="round"/>
        <path d="M420 470 Q450 560 440 650 L385 650 Q395 560 370 470Z" fill="url(#rayures)" stroke="#1E1430" stroke-width="7" stroke-linejoin="round" stroke-linecap="round"/><path d="M210 330 C200 330 186 350 180 380 C166 450 150 530 146 640 L454 640 C450 530 434 450 420 380 C414 350 400 330 390 330 Z" fill="url(#rayures)" stroke="#1E1430" stroke-width="7" stroke-linejoin="round" stroke-linecap="round"/><g clip-path="url(#torse)">
        <path d="M245 330 L300 500 L355 330Z" fill="#FFC93C" stroke="#1E1430" stroke-width="7" stroke-linejoin="round" stroke-linecap="round"/>
        <path d="M265 332 L300 420 L335 332Z" fill="#FFFFFF" stroke="#1E1430" stroke-width="7" stroke-linejoin="round" stroke-linecap="round"/>
        <circle cx="300" cy="450" r="9" fill="#FFFFFF" stroke="#1E1430" stroke-width="4" stroke-linejoin="round" stroke-linecap="round"/><circle cx="300" cy="480" r="9" fill="#FFFFFF" stroke="#1E1430" stroke-width="4" stroke-linejoin="round" stroke-linecap="round"/>
        <path d="M236 332 L292 500 L250 410 L270 380Z" fill="#5E6174" stroke="#1E1430" stroke-width="7" stroke-linejoin="round" stroke-linecap="round"/><path d="M364 332 L308 500 L350 410 L330 380Z" fill="#5E6174" stroke="#1E1430" stroke-width="7" stroke-linejoin="round" stroke-linecap="round"/></g><g transform="translate(300 352) scale(0.8)">
    <path d="M0 0 L-42 -24 Q-50 0 -42 24Z" fill="#6B1E3F" stroke="#1E1430" stroke-width="7" stroke-linejoin="round" stroke-linecap="round"/>
    <path d="M0 0 L42 -24 Q50 0 42 24Z" fill="#6B1E3F" stroke="#1E1430" stroke-width="7" stroke-linejoin="round" stroke-linecap="round"/>
    <path d="M-30 -12 Q-26 0 -30 12 M30 -12 Q26 0 30 12" stroke="#fff" stroke-width="4" opacity=".35" fill="none"/>
    <rect x="-12" y="-14" width="24" height="28" rx="8" fill="#6B1E3F" stroke="#1E1430" stroke-width="7" stroke-linejoin="round" stroke-linecap="round"/>
  </g>
    
    <path d="M250 300 Q300 350 350 300 L350 340 Q300 360 250 340Z" fill="#B9BEC9"/>
    <g >
      <path d="M210 160 L196 100 Q240 104 258 140Z" fill="#4B4F5C" stroke="#1E1430" stroke-width="7" stroke-linejoin="round" stroke-linecap="round"/><path d="M390 160 L404 100 Q360 104 342 140Z" fill="#4B4F5C" stroke="#1E1430" stroke-width="7" stroke-linejoin="round" stroke-linecap="round"/><ellipse cx="300" cy="215" rx="108" ry="104" fill="#B9BEC9" stroke="#1E1430" stroke-width="7" stroke-linejoin="round" stroke-linecap="round"/><path d="M210 170 Q230 140 262 160 Q250 196 220 196Z" fill="#4B4F5C"/><path d="M360 230 Q392 220 396 252 Q370 262 356 250Z" fill="#4B4F5C" opacity=".8"/><path d="M286 120 Q300 110 314 120 L312 220 L288 220Z" fill="#FFFFFF"/><ellipse cx="236" cy="246" rx="16" ry="9" fill="#FF4F9A" opacity=".35"/><ellipse cx="364" cy="246" rx="16" ry="9" fill="#FF4F9A" opacity=".35"/><path d="M242 176 Q258 168 272 176 M328 176 Q342 168 358 176" fill="none" stroke="#1E1430" stroke-width="5" stroke-linejoin="round" stroke-linecap="round"/><ellipse cx="258" cy="205" rx="15" ry="18" fill="#1E1430"/><circle cx="263" cy="199" r="5" fill="#FFFFFF"/><ellipse cx="342" cy="205" rx="15" ry="18" fill="#1E1430"/><circle cx="347" cy="199" r="5" fill="#FFFFFF"/><ellipse cx="300" cy="268" rx="56" ry="56" fill="#FFFFFF" stroke="#1E1430" stroke-width="7" stroke-linejoin="round" stroke-linecap="round"/>
      <ellipse cx="300" cy="246" rx="22" ry="15" fill="#1E1430"/>
      <path d="M300 260 V280 M274 286 Q300 306 326 286" fill="none" stroke="#1E1430" stroke-width="5" stroke-linejoin="round" stroke-linecap="round"/>
      
      
    </g>
    </svg>