<svg xmlns="http://www.w3.org/2000/svg" viewBox="0 0 600 600" width="1200" height="1200"><rect width="600" height="600" fill="#FF4F9A"/><path d="M300 252 L900 252 L892.6130043570827 345.8606790241385Z" fill="#FF8DBE" opacity=".45"/><path d="M300 252 L863.815572471545 457.21208599540125 L824.7718242836374 542.8857721478023Z" fill="#FF8DBE" opacity=".45"/><path d="M300 252 L759.6266658713869 637.6725658119235 L693.6354173943043 704.8257481336632Z" fill="#FF8DBE" opacity=".45"/><path d="M300 252 L600 771.6152422706632 L515.0207697271802 812.148255898321Z" fill="#FF8DBE" opacity=".45"/><path d="M300 252 L404.18890660015825 842.8846518073248 L310.47144386237005 851.9086170938348Z" fill="#FF8DBE" opacity=".45"/><path d="M300 252 L195.8110933998418 842.8846518073248 L104.65910732570615 819.3111453595901Z" fill="#FF8DBE" opacity=".45"/><path d="M300 252 L1.1368683772161603e-13 771.6152422706632 L-77.59223462990235 718.2875768741826Z" fill="#FF8DBE" opacity=".45"/><path d="M300 252 L-159.62666587138676 637.6725658119237 L-214.30038042126728 561.0228449460326Z" fill="#FF8DBE" opacity=".45"/><path d="M300 252 L-263.815572471545 457.21208599540137 L-288.9763100685984 366.485397225927Z" fill="#FF8DBE" opacity=".45"/><path d="M300 252 L-300 252.00000000000009 L-292.6130043570827 158.13932097586155Z" fill="#FF8DBE" opacity=".45"/><path d="M300 252 L-263.815572471545 46.787914004598804 L-224.77182428363756 -38.885772147802186Z" fill="#FF8DBE" opacity=".45"/><path d="M300 252 L-159.62666587138688 -133.67256581192356 L-93.63541739430462 -200.825748133663Z" fill="#FF8DBE" opacity=".45"/><path d="M300 252 L-2.8421709430404007e-13 -267.6152422706631 L84.97923027281956 -308.14825589832094Z" fill="#FF8DBE" opacity=".45"/><path d="M300 252 L195.8110933998418 -338.88465180732476 L289.5285561376299 -347.9086170938348Z" fill="#FF8DBE" opacity=".45"/><path d="M300 252 L404.18890660015796 -338.8846518073249 L495.3408926742938 -315.3111453595902Z" fill="#FF8DBE" opacity=".45"/><path d="M300 252 L600 -267.6152422706632 L677.5922346299026 -214.2875768741825Z" fill="#FF8DBE" opacity=".45"/><path d="M300 252 L759.6266658713866 -133.67256581192373 L814.3003804212673 -57.022844946032706Z" fill="#FF8DBE" opacity=".45"/><path d="M300 252 L863.815572471545 46.78791400459883 L888.9763100685984 137.51460277407318Z" fill="#FF8DBE" opacity=".45"/>
  <ellipse cx="300" cy="590" rx="252" ry="54" fill="#1E1430" opacity=".18"/>
    <defs><clipPath id="torse"><path d="M210 330 C200 330 186 350 180 380 C166 450 150 530 146 640 L454 640 C450 530 434 450 420 380 C414 350 400 330 390 330 Z"/></clipPath></defs>
    
  <path d="M210 330 C200 330 186 350 180 380 C166 450 150 530 146 640 L454 640 C450 530 434 450 420 380 C414 350 400 330 390 330 Z" fill="#D9D2CC" stroke="#1E1430" stroke-width="7" stroke-linejoin="round" stroke-linecap="round"/>
  <path d="M250 360 C270 420 330 420 350 360 C346 420 330 470 300 480 C270 470 254 420 250 360Z" fill="#FFFFFF" opacity=".85"/>
  <!-- pattes avant -->
  <rect x="222" y="470" width="58" height="150" rx="28" fill="#D9D2CC" stroke="#1E1430" stroke-width="7" stroke-linejoin="round" stroke-linecap="round"/>
  <rect x="320" y="470" width="58" height="150" rx="28" fill="#D9D2CC" stroke="#1E1430" stroke-width="7" stroke-linejoin="round" stroke-linecap="round"/>
  <ellipse cx="251" cy="592" rx="36" ry="20" fill="#FFFFFF" stroke="#1E1430" stroke-width="7" stroke-linejoin="round" stroke-linecap="round"/>
  <ellipse cx="349" cy="592" rx="36" ry="20" fill="#FFFFFF" stroke="#1E1430" stroke-width="7" stroke-linejoin="round" stroke-linecap="round"/>
  <path d="M240 600 v-10 M262 600 v-10 M338 600 v-10 M360 600 v-10" stroke="#1E1430" stroke-width="4" stroke-linecap="round"/>
    
    <circle cx="180" cy="352" r="9.6" fill="#FFFDF6" stroke="#1E1430" stroke-width="3" stroke-linejoin="round" stroke-linecap="round"/><circle cx="185.87321804458156" cy="364.9787137637478" r="9.6" fill="#FFFDF6" stroke="#1E1430" stroke-width="3" stroke-linejoin="round" stroke-linecap="round"/><circle cx="202.9179606750063" cy="376.6869805962839" r="9.6" fill="#FFFDF6" stroke="#1E1430" stroke-width="3" stroke-linejoin="round" stroke-linecap="round"/><circle cx="229.46576972490323" cy="385.9787137637478" r="9.6" fill="#FFFDF6" stroke="#1E1430" stroke-width="3" stroke-linejoin="round" stroke-linecap="round"/><circle cx="262.9179606750063" cy="391.94437368439645" r="9.6" fill="#FFFDF6" stroke="#1E1430" stroke-width="3" stroke-linejoin="round" stroke-linecap="round"/><circle cx="300" cy="394" r="9.6" fill="#FFFDF6" stroke="#1E1430" stroke-width="3" stroke-linejoin="round" stroke-linecap="round"/><circle cx="337.0820393249937" cy="391.94437368439645" r="9.6" fill="#FFFDF6" stroke="#1E1430" stroke-width="3" stroke-linejoin="round" stroke-linecap="round"/><circle cx="370.5342302750968" cy="385.9787137637478" r="9.6" fill="#FFFDF6" stroke="#1E1430" stroke-width="3" stroke-linejoin="round" stroke-linecap="round"/><circle cx="397.0820393249937" cy="376.6869805962839" r="9.6" fill="#FFFDF6" stroke="#1E1430" stroke-width="3" stroke-linejoin="round" stroke-linecap="round"/><circle cx="414.12678195541844" cy="364.9787137637478" r="9.6" fill="#FFFDF6" stroke="#1E1430" stroke-width="3" stroke-linejoin="round" stroke-linecap="round"/><circle cx="420" cy="352" r="9.6" fill="#FFFDF6" stroke="#1E1430" stroke-width="3" stroke-linejoin="round" stroke-linecap="round"/><circle cx="195" cy="372" r="9" fill="#FFFDF6" stroke="#1E1430" stroke-width="3" stroke-linejoin="round" stroke-linecap="round"/><circle cx="200.1390657890089" cy="383.35637454327934" r="9" fill="#FFFDF6" stroke="#1E1430" stroke-width="3" stroke-linejoin="round" stroke-linecap="round"/><circle cx="215.05321559063051" cy="393.60110802174836" r="9" fill="#FFFDF6" stroke="#1E1430" stroke-width="3" stroke-linejoin="round" stroke-linecap="round"/><circle cx="238.28254850929034" cy="401.73137454327934" r="9" fill="#FFFDF6" stroke="#1E1430" stroke-width="3" stroke-linejoin="round" stroke-linecap="round"/><circle cx="267.55321559063054" cy="406.9513269738469" r="9" fill="#FFFDF6" stroke="#1E1430" stroke-width="3" stroke-linejoin="round" stroke-linecap="round"/><circle cx="300" cy="408.75" r="9" fill="#FFFDF6" stroke="#1E1430" stroke-width="3" stroke-linejoin="round" stroke-linecap="round"/><circle cx="332.44678440936946" cy="406.9513269738469" r="9" fill="#FFFDF6" stroke="#1E1430" stroke-width="3" stroke-linejoin="round" stroke-linecap="round"/><circle cx="361.71745149070966" cy="401.73137454327934" r="9" fill="#FFFDF6" stroke="#1E1430" stroke-width="3" stroke-linejoin="round" stroke-linecap="round"/><circle cx="384.94678440936946" cy="393.6011080217484" r="9" fill="#FFFDF6" stroke="#1E1430" stroke-width="3" stroke-linejoin="round" stroke-linecap="round"/><circle cx="399.8609342109911" cy="383.35637454327934" r="9" fill="#FFFDF6" stroke="#1E1430" stroke-width="3" stroke-linejoin="round" stroke-linecap="round"/><circle cx="405" cy="372" r="9" fill="#FFFDF6" stroke="#1E1430" stroke-width="3" stroke-linejoin="round" stroke-linecap="round"/><circle cx="210" cy="392" r="8.4" fill="#FFFDF6" stroke="#1E1430" stroke-width="3" stroke-linejoin="round" stroke-linecap="round"/><circle cx="214.40491353343617" cy="401.7340353228108" r="8.4" fill="#FFFDF6" stroke="#1E1430" stroke-width="3" stroke-linejoin="round" stroke-linecap="round"/><circle cx="227.18847050625473" cy="410.5152354472129" r="8.4" fill="#FFFDF6" stroke="#1E1430" stroke-width="3" stroke-linejoin="round" stroke-linecap="round"/><circle cx="247.09932729367742" cy="417.4840353228108" r="8.4" fill="#FFFDF6" stroke="#1E1430" stroke-width="3" stroke-linejoin="round" stroke-linecap="round"/><circle cx="272.1884705062547" cy="421.95828026329735" r="8.4" fill="#FFFDF6" stroke="#1E1430" stroke-width="3" stroke-linejoin="round" stroke-linecap="round"/><circle cx="300" cy="423.5" r="8.4" fill="#FFFDF6" stroke="#1E1430" stroke-width="3" stroke-linejoin="round" stroke-linecap="round"/><circle cx="327.81152949374524" cy="421.95828026329735" r="8.4" fill="#FFFDF6" stroke="#1E1430" stroke-width="3" stroke-linejoin="round" stroke-linecap="round"/><circle cx="352.90067270632255" cy="417.4840353228108" r="8.4" fill="#FFFDF6" stroke="#1E1430" stroke-width="3" stroke-linejoin="round" stroke-linecap="round"/><circle cx="372.81152949374524" cy="410.5152354472129" r="8.4" fill="#FFFDF6" stroke="#1E1430" stroke-width="3" stroke-linejoin="round" stroke-linecap="round"/><circle cx="385.5950864665638" cy="401.7340353228108" r="8.4" fill="#FFFDF6" stroke="#1E1430" stroke-width="3" stroke-linejoin="round" stroke-linecap="round"/><circle cx="390" cy="392" r="8.4" fill="#FFFDF6" stroke="#1E1430" stroke-width="3" stroke-linejoin="round" stroke-linecap="round"/>
    <path d="M250 300 Q300 350 350 300 L350 340 Q300 360 250 340Z" fill="#D9D2CC"/>
    <g >
      <path d="M215 150 Q190 120 220 110 Q246 120 250 140Z" fill="#B5ACA4" stroke="#1E1430" stroke-width="7" stroke-linejoin="round" stroke-linecap="round"/><path d="M385 150 Q410 120 380 110 Q354 120 350 140Z" fill="#B5ACA4" stroke="#1E1430" stroke-width="7" stroke-linejoin="round" stroke-linecap="round"/><ellipse cx="300" cy="215" rx="92" ry="112" fill="#D9D2CC" stroke="#1E1430" stroke-width="7" stroke-linejoin="round" stroke-linecap="round"/><ellipse cx="236" cy="246" rx="16" ry="9" fill="#FF4F9A" opacity=".35"/><ellipse cx="364" cy="246" rx="16" ry="9" fill="#FF4F9A" opacity=".35"/><path d="M242 176 Q258 168 272 176 M328 176 Q342 168 358 176" fill="none" stroke="#1E1430" stroke-width="5" stroke-linejoin="round" stroke-linecap="round"/><ellipse cx="258" cy="205" rx="15" ry="18" fill="#1E1430"/><circle cx="263" cy="199" r="5" fill="#FFFFFF"/><ellipse cx="342" cy="205" rx="15" ry="18" fill="#1E1430"/><circle cx="347" cy="199" r="5" fill="#FFFFFF"/><ellipse cx="300" cy="268" rx="56" ry="56" fill="#FFFFFF" stroke="#1E1430" stroke-width="7" stroke-linejoin="round" stroke-linecap="round"/>
      <ellipse cx="300" cy="246" rx="22" ry="15" fill="#1E1430"/>
      <path d="M300 260 V280 M274 286 Q300 306 326 286" fill="none" stroke="#1E1430" stroke-width="5" stroke-linejoin="round" stroke-linecap="round"/>
      
      
    </g>
    </svg>